# xmcd
#
# Track frame offsets:
#	150
#	23850
#	46187
#	73072
#	96170
#	126952
#	147865
#	173255
#	191395
#	209387
#
# Disc length: 3026 seconds
#
# Revision: 1
# Processed by: cddbd v1.5.2PL0 Copyright (c) Steve Scherf et al.
# Submitted via: EZCDAudioConverter 8.0.2.1
#
DISCID=850bd00a
DTITLE=Chế Linh, Hương Lan - Giận Hờn
DYEAR=1988
DGENRE=blues
TTITLE0=Chế Linh, Hương Lan - Giận Hờn
TTITLE1=Chế Linh - Cho anh được về với em
TTITLE2=Hương Lan - Cánh hoa pensee
TTITLE3=Chế Linh - Trả lời thư em
TTITLE4=Hương Lan - Hoa thương nhớ ai
TTITLE5=Chế Linh - Phương trời xứ lạ
TTITLE6=Chế Linh, Hương Lan - Mực tím mồng tơi
TTITLE7=Chế Linh - Chuyện tình người mang tên Phượng
TTITLE8=Hương Lan - Phượng buồn
TTITLE9=Chế Linh - Tại anh không nói
EXTD=
EXTT0=
EXTT1=
EXTT2=
EXTT3=
EXTT4=
EXTT5=
EXTT6=
EXTT7=
EXTT8=
EXTT9=
PLAYORDER=
